{
    "asset": {
        "generator": "COLLADA2GLTF",
        "version": "2.0"
    },
    "scenes": [
        {
            "nodes": [
                0
            ]
        }
    ],
    "scene": 0,
    "nodes": [
        {
            "children": [
                1
            ],
            "matrix": [
                1.0,
                0.0,
                0.0,
                0.0,
                0.0,
                0.0,
                -1.0,
                0.0,
                0.0,
                1.0,
                0.0,
                0.0,
                0.0,
                0.0,
                0.0,
                1.0
            ],
            "name": "Z_UP"
        },
        {
            "children": [
                2
            ],
            "name": "Model"
        },
        {
            "children": [
                3
            ],
            "name": "Part_0"
        },
        {
            "children": [
                4
            ],
            "matrix": [
                1.0,
                0.0,
                0.0,
                0.0,
                0.0,
                1.0,
                0.0,
                0.0,
                0.0,
                0.0,
                1.0,
                0.0,
                2.275000095367432,
                1.8200000524520877,
                0.0,
                1.0
            ],
            "name": "Part_1"
        },
        {
            "children": [
                8,
                5
            ],
            "name": "Part_2"
        },
        {
            "children": [
                6
            ],
            "name": "Part_4"
        },
        {
            "children": [
                7
            ],
            "name": "Part_4_Model"
        },
        {
            "mesh": 0,
            "matrix": [
                1000.0,
                0.0,
                0.0,
                0.0,
                0.0,
                1000.0,
                0.0,
                0.0,
                0.0,
                0.0,
                1000.0,
                0.0,
                0.0,
                0.0,
                0.0,
                1.0
            ],
            "name": "2_primitive"
        },
        {
            "children": [
                9
            ],
            "name": "Part_3"
        },
        {
            "children": [
                10
            ],
            "name": "Part_3_Model"
        },
        {
            "mesh": 1,
            "matrix": [
                1000.0,
                0.0,
                0.0,
                0.0,
                0.0,
                1000.0,
                0.0,
                0.0,
                0.0,
                0.0,
                1000.0,
                0.0,
                0.0,
                0.0,
                0.0,
                1.0
            ],
            "name": "1_primitive"
        }
    ],
    "meshes": [
        {
            "primitives": [
                {
                    "attributes": {
                        "NORMAL": 1,
                        "POSITION": 2,
                        "TEXCOORD_0": 3
                    },
                    "indices": 0,
                    "mode": 4,
                    "material": 0
                }
            ],
            "name": "geometry-2"
        },
        {
            "primitives": [
                {
                    "attributes": {
                        "NORMAL": 5,
                        "POSITION": 6,
                        "TEXCOORD_0": 7
                    },
                    "indices": 4,
                    "mode": 4,
                    "material": 1
                }
            ],
            "name": "geometry-1"
        }
    ],
    "accessors": [
        {
            "bufferView": 0,
            "byteOffset": 0,
            "componentType": 5123,
            "count": 465,
            "max": [
                200
            ],
            "min": [
                0
            ],
            "type": "SCALAR"
        },
        {
            "bufferView": 1,
            "byteOffset": 0,
            "componentType": 5126,
            "count": 201,
            "max": [
                1.0,
                1.0,
                1.0
            ],
            "min": [
                -1.0,
                -1.0,
                -1.0
            ],
            "type": "VEC3"
        },
        {
            "bufferView": 1,
            "byteOffset": 2412,
            "componentType": 5126,
            "count": 201,
            "max": [
                0.004602500237524509,
                0.0036925000604242088,
                0.0005050000036135316
            ],
            "min": [
                -0.00005200000305194408,
                -0.00005249999958323315,
                0.0004000000189989805
            ],
            "type": "VEC3"
        },
        {
            "bufferView": 2,
            "byteOffset": 0,
            "componentType": 5126,
            "count": 201,
            "max": [
                77.35417938232422,
                32.4375
            ],
            "min": [
                0.6458320021629334,
                1.229166030883789
            ],
            "type": "VEC2"
        },
        {
            "bufferView": 0,
            "byteOffset": 930,
            "componentType": 5123,
            "count": 432,
            "max": [
                183
            ],
            "min": [
                0
            ],
            "type": "SCALAR"
        },
        {
            "bufferView": 1,
            "byteOffset": 4824,
            "componentType": 5126,
            "count": 184,
            "max": [
                1.0,
                1.0,
                1.0
            ],
            "min": [
                -1.0,
                -1.0,
                -1.0
            ],
            "type": "VEC3"
        },
        {
            "bufferView": 1,
            "byteOffset": 7032,
            "componentType": 5126,
            "count": 184,
            "max": [
                0.004625000059604645,
                0.003715000115334988,
                0.0004000000189989805
            ],
            "min": [
                -0.00007500000356230885,
                -0.00007500000356230885,
                0.0
            ],
            "type": "VEC3"
        },
        {
            "bufferView": 2,
            "byteOffset": 1608,
            "componentType": 5126,
            "count": 184,
            "max": [
                15.708333969116213,
                8.125
            ],
            "min": [
                0.29166698455810549,
                1.808332920074463
            ],
            "type": "VEC2"
        }
    ],
    "materials": [
        {
            "pbrMetallicRoughness": {
                "baseColorTexture": {
                    "index": 0
                },
                "metallicFactor": 0.0
            },
            "emissiveFactor": [
                0.0,
                0.0,
                0.0
            ],
            "doubleSided": true,
            "name": "texture1material-effect"
        },
        {
            "pbrMetallicRoughness": {
                "baseColorTexture": {
                    "index": 1
                },
                "metallicFactor": 0.0
            },
            "emissiveFactor": [
                0.0,
                0.0,
                0.0
            ],
            "doubleSided": true,
            "name": "texture0material-effect"
        }
    ],
    "textures": [
        {
            "sampler": 0,
            "source": 0
        },
        {
            "sampler": 0,
            "source": 1
        }
    ],
    "images": [
        {
            "uri": "data:image/png;base64,"
        },
        {
            "uri": "data:image/png;base64,"
        }
    ],
    "samplers": [
        {
            "magFilter": 9729,
            "minFilter": 9986,
            "wrapS": 10497,
            "wrapT": 10497
        }
    ],
    "bufferViews": [
        {
            "buffer": 0,
            "byteOffset": 12320,
            "byteLength": 1794,
            "target": 34963
        },
        {
            "buffer": 0,
            "byteOffset": 0,
            "byteLength": 9240,
            "byteStride": 12,
            "target": 34962
        },
        {
            "buffer": 0,
            "byteOffset": 9240,
            "byteLength": 3080,
            "byteStride": 8,
            "target": 34962
        }
    ],
    "buffers": [
        {
            "byteLength": 14114,
            "uri": "data:application/octet-stream;base64,"
        }
    ]
}
